<svg xmlns="http://www.w3.org/2000/svg" viewBox="0 0 885 885">
  <defs>
    <style>
      .cls-1, .cls-3 {
        fill: #f7931e;
      }

      .cls-1 {
        stroke: #fbb03b;
        stroke-width: 35px;
      }

      .cls-1, .cls-12, .cls-4, .cls-5, .cls-6 {
        stroke-miterlimit: 10;
      }

      .cls-2 {
        fill: #b3b3b3;
      }

      .cls-4 {
        fill: #4ac9ff;
        stroke: #4ac9ff;
      }

      .cls-4, .cls-5, .cls-6 {
        stroke-width: 3px;
      }

      .cls-5 {
        fill: #0096ff;
        stroke: #0096ff;
      }

      .cls-6 {
        fill: #6aecff;
        stroke: #6aecff;
      }

      .cls-7 {
        fill: #e6e6e6;
      }

      .cls-8 {
        fill: #f2f2f2;
      }

      .cls-9 {
        fill: #ccc;
      }

      .cls-10 {
        fill: #4d4d4d;
      }

      .cls-11 {
        fill: #666;
      }

      .cls-12 {
        fill: #333;
        stroke: #999;
        stroke-width: 2px;
      }
    </style>
  </defs>
  <title>Bathroom icon</title>
  <g id="Layer_3" data-name="Layer 3">
    <circle class="cls-1" cx="442.5" cy="442.5" r="425"/>
  </g>
  <g id="Layer_2" data-name="Layer 2">
    <g>
      <path class="cls-2" d="M480.64,512.68a1.63,1.63,0,0,1-1.63-1.63V445.63a40.93,40.93,0,0,1,40.89-40.89H790.08a10.32,10.32,0,0,0,10.31-10.31V375.94a10.32,10.32,0,0,0-10.31-10.3H768.69v-41h30.2a42.58,42.58,0,0,1,42.52,42.53v36.1a42.57,42.57,0,0,1-42.52,42.52H530.34A10.33,10.33,0,0,0,520,456.07v55a1.63,1.63,0,0,1-1.63,1.63Z" transform="translate(-57.5 -57.5)"/>
      <path class="cls-3" d="M798.89,326.11a41.07,41.07,0,0,1,41,41v36.1a41.06,41.06,0,0,1-41,41H530.34a11.83,11.83,0,0,0-11.81,11.81v55a.13.13,0,0,1-.13.13H480.64a.13.13,0,0,1-.13-.13V445.63a39.43,39.43,0,0,1,39.39-39.39H790.08a11.83,11.83,0,0,0,11.81-11.81V375.94a11.82,11.82,0,0,0-11.81-11.8H770.19v-38h28.7m0-3h-31.7v44h22.89a8.81,8.81,0,0,1,8.81,8.8v18.49a8.81,8.81,0,0,1-8.81,8.81H519.9a42.39,42.39,0,0,0-42.39,42.39v65.42a3.13,3.13,0,0,0,3.13,3.13H518.4a3.13,3.13,0,0,0,3.13-3.13v-55a8.8,8.8,0,0,1,8.81-8.81H798.89a44,44,0,0,0,44-44v-36.1a44,44,0,0,0-44-44Z" transform="translate(-57.5 -57.5)"/>
    </g>
  </g>
  <g id="Layer_1" data-name="Layer 1">
    <rect class="cls-4" x="405.59" y="473.84" width="76.83" height="286.35" rx="14.44" ry="14.44"/>
    <path class="cls-5" d="M405.64,474.1h14.09a0,0,0,0,1,0,0V760.45a0,0,0,0,1,0,0h0a14.09,14.09,0,0,1-14.09-14.09V474.1A0,0,0,0,1,405.64,474.1Z"/>
    <path class="cls-6" d="M468.16,474.1h14.09a0,0,0,0,1,0,0V746.36a14.09,14.09,0,0,1-14.09,14.09h0a0,0,0,0,1,0,0V474.1A0,0,0,0,1,468.16,474.1Z"/>
    <g>
      <path class="cls-7" d="M742,313.91a31.31,31.31,0,0,1,0,62.61Z" transform="translate(-57.5 -57.5)"/>
      <path class="cls-7" d="M743.49,315.46a29.81,29.81,0,0,1,0,59.51V315.46m-1.82-3h-1.18V378h1.18a32.81,32.81,0,0,0,0-65.61Z" transform="translate(-57.5 -57.5)"/>
    </g>
    <g>
      <path class="cls-8" d="M367.35,376.52a31.31,31.31,0,1,1,0-62.61H743.2v62.61Z" transform="translate(-57.5 -57.5)"/>
      <path class="cls-8" d="M741.7,315.41V375H367.35a29.81,29.81,0,1,1,0-59.61H741.7m3-3H367.35a32.81,32.81,0,1,0,0,65.61H744.7V312.41Z" transform="translate(-57.5 -57.5)"/>
    </g>
    <g>
      <rect class="cls-2" x="218.12" y="452.02" width="452.22" height="41.03"/>
      <path class="cls-3" d="M726.34,511v38H277.12V511H726.34m3-3H274.12v44H729.34V508Z" transform="translate(-57.5 -57.5)"/>
    </g>
    <g>
      <path class="cls-7" d="M430.25,673.63V556.81c0-45.3,31.71-82.15,70.68-82.15s70.69,36.85,70.69,82.15V673.63Z" transform="translate(-57.5 -57.5)"/>
      <path class="cls-3" d="M500.93,476.16c38.15,0,69.18,36.18,69.18,80.65V672.13H431.75V556.81c0-44.47,31-80.65,69.18-80.65m0-3c-39.86,0-72.18,37.46-72.18,83.65V675.13H573.11V556.81c0-46.19-32.32-83.65-72.18-83.65Z" transform="translate(-57.5 -57.5)"/>
    </g>
    <g>
      <circle class="cls-8" cx="297.09" cy="529.71" r="75.88" transform="translate(-363.49 543.97) rotate(-67.5)"/>
      <path class="cls-3" d="M297.09,455.33a74.38,74.38,0,1,1-74.38,74.38,74.46,74.46,0,0,1,74.38-74.38m0-3a77.38,77.38,0,1,0,77.38,77.38,77.37,77.37,0,0,0-77.38-77.38Z" transform="translate(-57.5 -57.5)"/>
    </g>
    <g>
      <rect class="cls-9" x="372.75" y="595.87" width="141.37" height="20.27"/>
      <path class="cls-9" d="M570.11,654.86v17.27H431.75V654.86H570.11m3-3H428.75v23.27H573.11V651.86Z" transform="translate(-57.5 -57.5)"/>
    </g>
    <g>
      <path class="cls-2" d="M297.09,557.08a27.38,27.38,0,1,1,27.37-27.37A27.41,27.41,0,0,1,297.09,557.08Z" transform="translate(-57.5 -57.5)"/>
      <path class="cls-2" d="M297.09,503.83a25.88,25.88,0,1,1-25.88,25.88,25.91,25.91,0,0,1,25.88-25.88m0-3A28.88,28.88,0,1,0,326,529.71a28.88,28.88,0,0,0-28.87-28.88Z" transform="translate(-57.5 -57.5)"/>
    </g>
    <g>
      <path class="cls-10" d="M297.2,552.36A22.79,22.79,0,0,1,280.41,545a22.56,22.56,0,0,1-.56-30l30.42,33.27A22.32,22.32,0,0,1,297.2,552.36Z" transform="translate(-57.5 -57.5)"/>
      <path class="cls-11" d="M279.87,515.68l29.65,32.43a21.84,21.84,0,0,1-12.32,3.75,22.31,22.31,0,0,1-16.42-7.24,22.07,22.07,0,0,1-.91-28.94m0-1.51A23.22,23.22,0,0,0,311,548.27l-31.17-34.1Z" transform="translate(-57.5 -57.5)"/>
    </g>
    <g>
      <path class="cls-10" d="M284.18,511a22.39,22.39,0,0,1,12.79-4,22.74,22.74,0,0,1,17.57,37.18Z" transform="translate(-57.5 -57.5)"/>
      <path class="cls-11" d="M297,507.55h0a22.24,22.24,0,0,1,17.55,35.91L285,511.11a21.87,21.87,0,0,1,12-3.56m0-1a23,23,0,0,0-13.54,4.39l31.13,34A23.24,23.24,0,0,0,297,506.55Z" transform="translate(-57.5 -57.5)"/>
    </g>
    <g>
      <circle class="cls-8" cx="704.78" cy="529.71" r="75.88" transform="translate(-225.63 596) rotate(-45)"/>
      <path class="cls-3" d="M704.78,455.33a74.38,74.38,0,1,1-74.38,74.38,74.46,74.46,0,0,1,74.38-74.38m0-3a77.38,77.38,0,1,0,77.38,77.38,77.37,77.37,0,0,0-77.38-77.38Z" transform="translate(-57.5 -57.5)"/>
    </g>
    <g>
      <path class="cls-2" d="M704.78,557.08a27.38,27.38,0,1,1,27.37-27.37A27.41,27.41,0,0,1,704.78,557.08Z" transform="translate(-57.5 -57.5)"/>
      <path class="cls-2" d="M704.78,503.83a25.88,25.88,0,1,1-25.88,25.88,25.91,25.91,0,0,1,25.88-25.88m0-3a28.88,28.88,0,1,0,28.87,28.88,28.88,28.88,0,0,0-28.87-28.88Z" transform="translate(-57.5 -57.5)"/>
    </g>
    <g>
      <path class="cls-10" d="M704.89,552.36A22.79,22.79,0,0,1,688.1,545a22.56,22.56,0,0,1-.56-30L718,548.19A22.32,22.32,0,0,1,704.89,552.36Z" transform="translate(-57.5 -57.5)"/>
      <path class="cls-11" d="M687.56,515.68l29.65,32.43a21.84,21.84,0,0,1-12.32,3.75,22.31,22.31,0,0,1-16.42-7.24,22.07,22.07,0,0,1-.91-28.94m0-1.51a23.22,23.22,0,0,0,31.17,34.1l-31.17-34.1Z" transform="translate(-57.5 -57.5)"/>
    </g>
    <g>
      <path class="cls-10" d="M691.88,511a22.34,22.34,0,0,1,12.78-4,22.74,22.74,0,0,1,17.57,37.18Z" transform="translate(-57.5 -57.5)"/>
      <path class="cls-11" d="M704.66,507.55h0a22.24,22.24,0,0,1,17.55,35.91l-29.57-32.35a21.87,21.87,0,0,1,12-3.56m0-1a23,23,0,0,0-13.54,4.39l31.13,34a23.24,23.24,0,0,0-17.59-38.43Z" transform="translate(-57.5 -57.5)"/>
    </g>
    <g>
      <path class="cls-8" d="M344.62,376.52a125.18,125.18,0,0,1-125-125V246.8a33.7,33.7,0,0,1,.19-3.66H469.47a33.67,33.67,0,0,1,.2,3.66v3.3c0,69.47-55.9,126.18-124.61,126.42Z" transform="translate(-57.5 -57.5)"/>
      <path class="cls-8" d="M468.1,244.64q.06,1.06.06,2.16v3.3c0,68.65-55.22,124.68-123.1,124.92h-.44A123.53,123.53,0,0,1,221.09,251.48V246.8c0-.73,0-1.45.07-2.16H468.1m2.69-3H218.46a35,35,0,0,0-.37,5.16v4.68A126.53,126.53,0,0,0,344.62,378h.45c69.94-.24,126.09-58,126.09-127.92v-3.3a35,35,0,0,0-.37-5.16Z" transform="translate(-57.5 -57.5)"/>
    </g>
    <g>
      <path class="cls-7" d="M220.24,242a34.28,34.28,0,0,1,33.47-27.47H435.55A34.28,34.28,0,0,1,469,242Z" transform="translate(-57.5 -57.5)"/>
      <path class="cls-7" d="M435.55,216.05a32.8,32.8,0,0,1,31.58,24.46h-245a32.8,32.8,0,0,1,31.59-24.46H435.55m0-3H253.71a35.64,35.64,0,0,0-35.25,30.46H470.79a35.62,35.62,0,0,0-35.24-30.46Z" transform="translate(-57.5 -57.5)"/>
    </g>
    <ellipse class="cls-12" cx="253" cy="225.5" rx="11" ry="4" transform="translate(-92.81 -10.14) rotate(-10)"/>
    <ellipse class="cls-12" cx="226.5" cy="167" rx="11" ry="4"/>
    <ellipse class="cls-12" cx="257.5" cy="167" rx="11" ry="4"/>
    <ellipse class="cls-12" cx="288.5" cy="167" rx="11" ry="4"/>
    <ellipse class="cls-12" cx="319.5" cy="167" rx="11" ry="4"/>
    <ellipse class="cls-12" cx="349.5" cy="167" rx="11" ry="4"/>
    <ellipse class="cls-12" cx="437" cy="225.5" rx="4" ry="11" transform="matrix(0.17, -0.98, 0.98, 0.17, 81.54, 559.2)"/>
  </g>
</svg>
