<svg xmlns="http://www.w3.org/2000/svg" viewBox="0 0 885 885">
  <defs>
    <style>
      .cls-1 {
        fill: #f7931e;
      }

      .cls-1, .cls-4 {
        stroke: #fbb03b;
        stroke-width: 35px;
      }

      .cls-1, .cls-10, .cls-11, .cls-13, .cls-2, .cls-3, .cls-4, .cls-5, .cls-6, .cls-7, .cls-8, .cls-9 {
        stroke-miterlimit: 10;
      }

      .cls-2 {
        fill: #006837;
        stroke: #006837;
      }

      .cls-10, .cls-11, .cls-2, .cls-3, .cls-5, .cls-6, .cls-7, .cls-9 {
        stroke-width: 3px;
      }

      .cls-3 {
        fill: #22b573;
        stroke: #22b573;
      }

      .cls-4 {
        fill: none;
      }

      .cls-5 {
        fill: #4ac9ff;
        stroke: #4ac9ff;
      }

      .cls-6 {
        fill: #0096ff;
        stroke: #0096ff;
      }

      .cls-7 {
        fill: #6aecff;
        stroke: #6aecff;
      }

      .cls-8 {
        fill: #666;
        stroke: gray;
        stroke-width: 8px;
      }

      .cls-9 {
        fill: #b3b3b3;
        stroke: #b3b3b3;
      }

      .cls-10, .cls-12 {
        fill: #e6e6e6;
      }

      .cls-10 {
        stroke: #e6e6e6;
      }

      .cls-11 {
        fill: #999;
        stroke: #999;
      }

      .cls-13 {
        fill: #ccc;
        stroke: #ccc;
        stroke-width: 7px;
      }
    </style>
  </defs>
  <title>Outside tap icon</title>
  <g id="Layer_2" data-name="Layer 2">
    <circle class="cls-1" cx="442.5" cy="442.5" r="425"/>
  </g>
  <g id="Layer_3" data-name="Layer 3">
    <polygon class="cls-2" points="138 491 138 740 118 740 138 491"/>
    <polygon class="cls-3" points="158 740 138 740 138 491 158 740"/>
    <polygon class="cls-2" points="186 430.5 186 781 166 781 186 430.5"/>
    <polygon class="cls-3" points="206 781 186 781 186 430.5 206 781"/>
    <polygon class="cls-2" points="226 555 226 804 206 804 226 555"/>
    <polygon class="cls-3" points="246 804 226 804 226 555 246 804"/>
    <polygon class="cls-2" points="261 526.5 261 828 241 828 261 526.5"/>
    <polygon class="cls-3" points="280.12 814.67 280.12 814.69 278.75 828 261 828 261 526.5 280.12 814.67"/>
    <polygon class="cls-3" points="281 828 278.75 828 280.12 814.69 281 828"/>
    <polygon class="cls-2" points="297 650.5 297 845 277 845 278.75 828 281 828 280.12 814.69 280.12 814.67 297 650.5"/>
    <polygon class="cls-3" points="280.12 814.69 281 828 278.75 828 280.12 814.69"/>
    <polygon class="cls-3" points="317 845 297 845 297 650.5 317 845"/>
    <polygon class="cls-2" points="743 437.5 743 745 723 745 743 437.5"/>
    <polygon class="cls-3" points="763 745 743 745 743 437.5 763 745"/>
    <polygon class="cls-2" points="695 615.5 695 786 675 786 695 615.5"/>
    <polygon class="cls-3" points="715 786 695 786 695 615.5 715 786"/>
    <polygon class="cls-2" points="655 560 655 809 635 809 655 560"/>
    <polygon class="cls-3" points="675 809 655 809 655 560 675 809"/>
    <polygon class="cls-2" points="620 475.5 620 833 602.25 833 600.79 818.84 600.79 818.82 620 475.5"/>
    <polygon class="cls-3" points="600.79 818.84 602.25 833 600 833 600.79 818.84"/>
    <polygon class="cls-3" points="640 833 620 833 620 475.5 640 833"/>
    <polygon class="cls-2" points="584 655.5 584 850 564 850 584 655.5"/>
    <polygon class="cls-3" points="604 850 584 850 584 655.5 600.79 818.82 600.79 818.84 600 833 602.25 833 604 850"/>
    <polygon class="cls-3" points="602.25 833 600 833 600.79 818.84 602.25 833"/>
    <polygon class="cls-2" points="791 485.5 791 685 771 685 791 485.5"/>
    <polygon class="cls-3" points="811 685 791 685 791 485.5 811 685"/>
    <polygon class="cls-2" points="91 480.5 91 680 71 680 91 480.5"/>
    <polygon class="cls-3" points="111 680 91 680 91 480.5 111 680"/>
    <circle class="cls-4" cx="442.5" cy="442.5" r="425"/>
  </g>
  <g id="Layer_1" data-name="Layer 1">
    <rect class="cls-5" x="400.39" y="470.2" width="84.23" height="339.99" rx="14.92" ry="14.92"/>
    <path class="cls-6" d="M400.45,470.51h15.44a0,0,0,0,1,0,0v340a0,0,0,0,1,0,0h-1.36a14.09,14.09,0,0,1-14.09-14.09V470.51A0,0,0,0,1,400.45,470.51Z"/>
    <path class="cls-7" d="M469,470.51h15.44a0,0,0,0,1,0,0V796.41a14.09,14.09,0,0,1-14.09,14.09H469a0,0,0,0,1,0,0v-340A0,0,0,0,1,469,470.51Z"/>
    <circle class="cls-8" cx="442.5" cy="369.79" r="100.86"/>
    <path class="cls-9" d="M513.16,276.55v67.77a66.76,66.76,0,0,0-26.32,0V276.55Z" transform="translate(-57.5 -57.5)"/>
    <path class="cls-10" d="M526.41,276.55v75.09a30.18,30.18,0,0,0-11-7.32V276.55Z" transform="translate(-57.5 -57.5)"/>
    <path class="cls-11" d="M484.56,276.55V344.3a30.08,30.08,0,0,0-11,7.29v-75Z" transform="translate(-57.5 -57.5)"/>
    <g>
      <path class="cls-12" d="M603.85,281a23.7,23.7,0,0,1-8.26-1.48l-.06,0-51.45-4.72H457.2l-53.15,4.87-.05,0a23.66,23.66,0,0,1-7.85,1.33H376.8c-12.3,0-22.67-8.92-24.12-20.75a23.78,23.78,0,0,1,23.57-26.76h19.9a23.61,23.61,0,0,1,7.6,1.25l.06,0,59.46,4.95h7.24l.15-.23a23.79,23.79,0,0,1,20-11h19.9a23.66,23.66,0,0,1,20,11l.15.23h7.2l57.89-4.82.06,0a23.48,23.48,0,0,1,8-1.38H623.2c12.3,0,22.67,8.93,24.12,20.76A23.77,23.77,0,0,1,623.75,281Z" transform="translate(-57.5 -57.5)"/>
      <path class="cls-12" d="M510.57,229a23.15,23.15,0,0,1,19.59,10.73l.3.46H538l57.78-4.81h.13l.12-.05a23,23,0,0,1,7.8-1.35H623.2c12,0,22.21,8.74,23.62,20.32a23.26,23.26,0,0,1-23.07,26.19h-19.9a23.42,23.42,0,0,1-8.09-1.44l-.12-.05h-.13l-51.38-4.72h-87l-53,4.87H404l-.12,0a23.16,23.16,0,0,1-7.68,1.3H376.8c-12.05,0-22.21-8.73-23.62-20.32A23.26,23.26,0,0,1,376.25,234h19.9a23.16,23.16,0,0,1,7.44,1.22l.12,0h.12l59.4,4.95h7.56l.29-.46a23.43,23.43,0,0,1,3.15-3.92A23.1,23.1,0,0,1,490.67,229h19.9m0-1h-19.9a24.19,24.19,0,0,0-20.43,11.19h-6.93l-59.4-4.95a24.32,24.32,0,0,0-7.76-1.27h-19.9a24.26,24.26,0,0,0-24.06,27.32c1.49,12.22,12.3,21.19,24.61,21.19h19.35a23.93,23.93,0,0,0,8-1.36l53-4.86H544L595.42,280a24.28,24.28,0,0,0,8.43,1.51h19.9a24.25,24.25,0,0,0,24.06-27.31c-1.49-12.23-12.3-21.2-24.61-21.2H603.85a23.93,23.93,0,0,0-8.14,1.41l-57.78,4.81H531A24.24,24.24,0,0,0,510.57,228Z" transform="translate(-57.5 -57.5)"/>
    </g>
    <g>
      <path class="cls-12" d="M428.2,584.38V420.44c0-30.9,15-58.81,39.22-72.85a64.22,64.22,0,0,1,65.27.06c24.13,14.07,39.11,42,39.11,72.79V584.38Z" transform="translate(-57.5 -57.5)"/>
      <path class="cls-12" d="M500,339.21a63.68,63.68,0,0,1,32.44,8.87c24,14,38.86,41.7,38.86,72.35V583.88H428.7V420.43c0-30.71,14.93-58.46,39-72.41A63.69,63.69,0,0,1,500,339.21m0-1a65.06,65.06,0,0,0-32.83,9c-23.43,13.59-39.47,41.3-39.47,73.27V584.88H572.3V420.43c0-31.92-16-59.59-39.36-73.22a65.18,65.18,0,0,0-32.94-9Z" transform="translate(-57.5 -57.5)"/>
    </g>
    <rect class="cls-13" x="423.26" y="552.88" width="153.48" height="71.19" rx="3.95" ry="3.95" transform="translate(-47.15 -66.14) rotate(1)"/>
  </g>
</svg>
