<svg xmlns="http://www.w3.org/2000/svg" viewBox="0 0 885 885">
  <defs>
    <style>
      .cls-1, .cls-10 {
        fill: #f7931e;
      }

      .cls-1 {
        stroke: #fbb03b;
        stroke-width: 35px;
      }

      .cls-1, .cls-11, .cls-2, .cls-3, .cls-4, .cls-5, .cls-6, .cls-7, .cls-8 {
        stroke-miterlimit: 10;
      }

      .cls-2, .cls-5 {
        fill: #b3b3b3;
      }

      .cls-2 {
        stroke: #b3b3b3;
      }

      .cls-11, .cls-2, .cls-3, .cls-4, .cls-6, .cls-7, .cls-8 {
        stroke-width: 3px;
      }

      .cls-3, .cls-9 {
        fill: #e6e6e6;
      }

      .cls-3 {
        stroke: #e6e6e6;
      }

      .cls-4 {
        fill: #999;
        stroke: #999;
      }

      .cls-5 {
        stroke: #f7931e;
        stroke-width: 6px;
      }

      .cls-6 {
        fill: #4ac9ff;
        stroke: #4ac9ff;
      }

      .cls-7 {
        fill: #0096ff;
        stroke: #0096ff;
      }

      .cls-8 {
        fill: #6aecff;
        stroke: #6aecff;
      }

      .cls-11 {
        fill: #ccc;
        stroke: #ccc;
      }
    </style>
  </defs>
  <title>Regular tap icon</title>
  <g id="Layer_3" data-name="Layer 3">
    <circle class="cls-1" cx="442.5" cy="442.5" r="425"/>
  </g>
  <g id="Layer_1" data-name="Layer 1">
    <path class="cls-2" d="M635.6,611.75h136a0,0,0,0,1,0,0v116a20,20,0,0,1-20,20h-96a20,20,0,0,1-20-20v-116A0,0,0,0,1,635.6,611.75Z" transform="translate(736.21 1596.41) rotate(-139.3)"/>
    <path class="cls-3" d="M646.6,579.75h40a0,0,0,0,1,0,0v116a20,20,0,0,1-20,20h-20a0,0,0,0,1,0,0v-136a0,0,0,0,1,0,0Z" transform="translate(692.03 1516.03) rotate(-139.3)"/>
    <path class="cls-4" d="M720.6,643.75h40a0,0,0,0,1,0,0v136a0,0,0,0,1,0,0h-20a20,20,0,0,1-20-20v-116A0,0,0,0,1,720.6,643.75Z" transform="translate(780.39 1676.8) rotate(-139.3)"/>
    <path class="cls-2" d="M248.4,615.75h96a20,20,0,0,1,20,20v116a0,0,0,0,1,0,0h-136a0,0,0,0,1,0,0v-116a20,20,0,0,1,20-20Z" transform="translate(-431.7 301.19) rotate(-40.7)"/>
    <path class="cls-3" d="M313.4,583.75h20a20,20,0,0,1,20,20v116a0,0,0,0,1,0,0h-40a0,0,0,0,1,0,0v-136A0,0,0,0,1,313.4,583.75Z" transform="translate(-401.88 317.58) rotate(-40.7)"/>
    <path class="cls-4" d="M259.4,647.75h20a0,0,0,0,1,0,0v136a0,0,0,0,1,0,0h-40a0,0,0,0,1,0,0v-116A20,20,0,0,1,259.4,647.75Z" transform="translate(-461.52 284.8) rotate(-40.7)"/>
    <path class="cls-5" d="M737.4,798.75h-470L407.17,679.43a18.64,18.64,0,0,1,12.1-4.46h1a18.63,18.63,0,0,0,18.63-18.63V275.88a18.63,18.63,0,0,1,18.63-18.63h90.74a18.63,18.63,0,0,1,18.63,18.63V656.34A18.63,18.63,0,0,0,585.53,675h0a18.61,18.61,0,0,1,12.09,4.46L737.4,798.75Z" transform="translate(-57.5 -57.5)"/>
    <rect class="cls-6" x="406.48" y="326.09" width="76.83" height="439.26" rx="14.92" ry="14.92"/>
    <path class="cls-7" d="M406.54,326.49h14.09a0,0,0,0,1,0,0V765.75a0,0,0,0,1,0,0h0a14.09,14.09,0,0,1-14.09-14.09V326.49A0,0,0,0,1,406.54,326.49Z"/>
    <path class="cls-8" d="M469.06,326.49h14.09a0,0,0,0,1,0,0V751.66a14.09,14.09,0,0,1-14.09,14.09h0a0,0,0,0,1,0,0V326.49A0,0,0,0,1,469.06,326.49Z"/>
    <g>
      <path class="cls-9" d="M429.4,400.25V251.75a73.5,73.5,0,0,1,147,0v148.5Z" transform="translate(-57.5 -57.5)"/>
      <path class="cls-10" d="M502.9,179.75a72.08,72.08,0,0,1,72,72v147h-144v-147a72.08,72.08,0,0,1,72-72m0-3a75,75,0,0,0-75,75v150h150v-150a75,75,0,0,0-75-75Z" transform="translate(-57.5 -57.5)"/>
    </g>
    <rect class="cls-11" x="370.4" y="316.06" width="150" height="27.93" rx="3.95" ry="3.95"/>
  </g>
</svg>
