<svg xmlns="http://www.w3.org/2000/svg" viewBox="0 0 942.89 374.61">
  <defs>
    <style>
      .cls-1 {
        opacity: 0.2;
      }

      .cls-2 {
        opacity: 0.5;
      }

      .cls-3 {
        fill: blue;
      }

      .cls-12, .cls-4 {
        fill: #0071bc;
      }

      .cls-5 {
        fill: #3fa9f5;
      }

      .cls-13, .cls-6 {
        fill: #b3b3b3;
      }

      .cls-7 {
        fill: #ccc;
      }

      .cls-8 {
        fill: #e6e6e6;
      }

      .cls-9 {
        fill: #f2f2f2;
      }

      .cls-10, .cls-14 {
        fill: #f7931e;
      }

      .cls-11 {
        fill: #fbb03b;
      }

      .cls-12, .cls-14 {
        font-size: 187.39px;
        stroke-miterlimit: 10;
        stroke-width: 4px;
        font-family: AgencyFB-Reg, Agency FB;
      }

      .cls-12 {
        stroke: #3fa9f5;
      }

      .cls-13 {
        stroke: #ccc;
        stroke-width: 5px;
      }

      .cls-14 {
        stroke: #fbb03b;
      }
    </style>
  </defs>
  <title>Project Logo Signal Water Edge + Sink Security</title>
  <g id="Layer_3" data-name="Layer 3" class="cls-1">
    <g class="cls-2">
      <path class="cls-3" d="M68.89,679.61a30.93,30.93,0,0,1-30.22-25c7.08-6.77,14.44-10.61,21.9-11.42a29.44,29.44,0,0,1,2.94-.16,39.83,39.83,0,0,1,8.79,1.21,46.39,46.39,0,0,0,10.35,1.36c1,0,1.94,0,2.92-.12,9.54-.78,14.48-5.15,20.21-10.21a67.74,67.74,0,0,1,13.42-9.82c8.54-4.58,13.61-4.72,20.64-4.92a92.28,92.28,0,0,0,23.63-3.22c14.62-3.9,21.18-8.77,27.53-13.48,6-4.44,11.67-8.64,24.17-12.36a68.32,68.32,0,0,1,20.53-3.21c2.23,0,4.37.1,6.44.19s4.19.19,6.39.19c5.26,0,12-.48,22.19-4a64.81,64.81,0,0,0,22.73-13.06c4.95-4.11,9.63-8,20.44-11.21a66.88,66.88,0,0,1,19.94-2.92c2.38,0,4.63.1,6.8.2s4,.17,6,.17h0a37.36,37.36,0,0,0,20.17-5.27c8.44-4.88,12-10.26,15.37-15.46l.24-.37V648.85a30.79,30.79,0,0,1-30.76,30.76Z" transform="translate(-29.55 -313.7)"/>
      <path class="cls-3" d="M379.94,544.61V648.85a28.29,28.29,0,0,1-28.26,28.26H68.89a28.43,28.43,0,0,1-27.48-21.62c6.35-5.8,12.88-9.08,19.43-9.79a24.16,24.16,0,0,1,2.67-.15,37.72,37.72,0,0,1,8.26,1.15,48.84,48.84,0,0,0,10.88,1.42c1,0,2.08,0,3.12-.13,10.37-.85,15.86-5.7,21.67-10.83a64.47,64.47,0,0,1,12.94-9.49c8-4.3,12.6-4.42,19.53-4.62a94.08,94.08,0,0,0,24.2-3.31c15.08-4,21.84-9,28.38-13.88,5.82-4.31,11.31-8.38,23.4-12a66.1,66.1,0,0,1,19.81-3.1c2.18,0,4.29.09,6.33.19s4.24.19,6.5.19c5.47,0,12.48-.49,23-4.18a67,67,0,0,0,23.5-13.5c4.95-4.11,9.23-7.66,19.55-10.73a64.47,64.47,0,0,1,19.23-2.82c2.32,0,4.54.1,6.69.19s4.1.18,6.14.18a40.07,40.07,0,0,0,21.42-5.61,40.79,40.79,0,0,0,11.86-10.08m5-15.63c-6.14,7.24-7.91,14.77-19.36,21.38a34.89,34.89,0,0,1-18.92,4.94c-4,0-8.14-.37-12.83-.37a69.67,69.67,0,0,0-20.65,3c-22.35,6.64-19.62,16-43.29,24.3a61.1,61.1,0,0,1-21.36,3.9c-4.33,0-8.3-.38-12.83-.38a71,71,0,0,0-21.24,3.31c-26.56,7.91-24.05,18.46-51.64,25.82-23.32,6.22-28.34-.46-44.8,8.35-15.14,8.11-18.1,18.55-32.65,19.75-1,.07-1.85.11-2.72.11-7.41,0-12.1-2.57-19.14-2.57a30,30,0,0,0-3.2.18c-6.63.71-15,3.74-24.33,13a33.27,33.27,0,0,0,32.91,28.36H351.68a33.26,33.26,0,0,0,33.26-33.26V529Z" transform="translate(-29.55 -313.7)"/>
    </g>
    <g class="cls-2">
      <path class="cls-3" d="M38.13,611.82,382.44,496.19v24.93a73.33,73.33,0,0,0-4.43,6.26c-3.22,4.93-6.27,9.58-13.68,13.86a32.31,32.31,0,0,1-17.67,4.61c-1.88,0-3.79-.09-5.81-.18-2.23-.09-4.54-.19-7-.19a71.67,71.67,0,0,0-21.36,3.12c-11.8,3.51-17.09,7.91-22.21,12.16a59.79,59.79,0,0,1-21.19,12.18c-9.48,3.32-15.7,3.77-20.54,3.77-2.08,0-4.06-.09-6.16-.19s-4.32-.2-6.66-.2a73.18,73.18,0,0,0-22,3.42c-13.35,4-19.64,8.63-25.72,13.14-6.25,4.63-12.15,9-25.85,12.66a86.8,86.8,0,0,1-22.48,3.06c-7.13.2-13.28.37-22.86,5.5a71.74,71.74,0,0,0-14.37,10.49c-5.47,4.83-9.43,8.32-17.31,9-.84.07-1.69.1-2.51.1a42,42,0,0,1-9.3-1.25,44.91,44.91,0,0,0-9.85-1.31,31.25,31.25,0,0,0-3.46.19c-7.54.81-14.89,4.22-21.91,10.14Z" transform="translate(-29.55 -313.7)"/>
      <path class="cls-3" d="M379.94,499.67v20.58c-1.53,2-2.79,3.88-4,5.76-3.19,4.87-5.95,9.08-12.85,13.07a30,30,0,0,1-16.41,4.27c-1.82,0-3.71-.09-5.71-.17-2.25-.1-4.58-.2-7.12-.2a74.2,74.2,0,0,0-22.08,3.23c-12.28,3.65-17.78,8.21-23.09,12.62a56.83,56.83,0,0,1-20.42,11.75c-9.12,3.2-15.08,3.63-19.71,3.63-2,0-4-.09-6-.19s-4.38-.2-6.79-.2A75.67,75.67,0,0,0,213,577.34c-13.77,4.1-20.24,8.9-26.49,13.53-6,4.49-11.77,8.72-25,12.25a84.49,84.49,0,0,1-21.9,3c-7.44.21-13.87.39-24,5.8a73.75,73.75,0,0,0-14.84,10.81C95.51,627.4,92,630.49,85,631.07q-1.17.09-2.31.09A40,40,0,0,1,73.88,630a46.28,46.28,0,0,0-10.37-1.37,36.34,36.34,0,0,0-3.74.2,40.94,40.94,0,0,0-19.14,7.55V613.62L379.94,499.67m5-6.95L35.63,610V641.9a34.46,34.46,0,0,0,.35,4.9c9.32-9.28,17.7-12.31,24.33-13a29.89,29.89,0,0,1,3.2-.17c7,0,11.73,2.56,19.14,2.56.87,0,1.77,0,2.72-.11,14.55-1.19,17.51-11.63,32.65-19.74,16.46-8.82,21.48-2.14,44.8-8.36,27.59-7.36,25.08-17.91,51.64-25.82a71,71,0,0,1,21.24-3.31c4.53,0,8.5.39,12.83.39a60.92,60.92,0,0,0,21.36-3.91c23.67-8.29,20.94-17.66,43.29-24.3a69.66,69.66,0,0,1,20.65-3c4.69,0,8.81.37,12.83.37a35,35,0,0,0,18.92-4.94C377,536.79,378.8,529.26,384.94,522v-29.3Z" transform="translate(-29.55 -313.7)"/>
    </g>
    <g class="cls-2">
      <polygon class="cls-3" points="8.57 263.34 352.89 147.71 352.89 173.43 8.57 289.06 8.57 263.34"/>
      <path class="cls-3" d="M379.94,464.88v20.45l-339.31,114V578.83l339.31-114m5-6.95L35.63,575.24v31L384.94,488.92v-31Z" transform="translate(-29.55 -313.7)"/>
    </g>
    <g class="cls-2">
      <path class="cls-3" d="M38.13,351.51a30.8,30.8,0,0,1,30.76-30.76H351.68a30.8,30.8,0,0,1,30.76,30.76V452.34L38.13,568ZM77.55,500.74l2.28.2c4,.36,8,.54,12,.54,72.56,0,131.6-59,131.6-131.59,0-3.7-.16-7.48-.48-11.22l-.19-2.29H203.12l.28,2.75a114,114,0,0,1,.59,11.52A111.54,111.54,0,0,1,80.33,481.39l-2.78-.31Zm0-37.65,2.16.3a93.69,93.69,0,0,0,106.5-92.74,94.15,94.15,0,0,0-.78-12.09l-.28-2.18H164.7l.44,2.88a74.84,74.84,0,0,1,.88,11.39,73.48,73.48,0,0,1-85.56,72.44l-2.91-.49Zm0-38.81,1.91.47a55.7,55.7,0,0,0,67.41-66.42l-.44-1.95h-21.2l1.08,3.28a35.46,35.46,0,0,1-45.43,44.47L77.55,403Zm14.65-71.7a17.69,17.69,0,1,0,17.69,17.69A17.72,17.72,0,0,0,92.2,352.58Z" transform="translate(-29.55 -313.7)"/>
      <path class="cls-3" d="M351.68,323.25a28.3,28.3,0,0,1,28.26,28.26v99l-339.31,114v-213a28.3,28.3,0,0,1,28.26-28.26H351.68M92.2,390.46A20.19,20.19,0,1,0,72,370.27,20.22,20.22,0,0,0,92.2,390.46m.38,89.09a107.83,107.83,0,0,1-12-.65l-5.55-.61V503l4.55.41c4.06.37,8.17.55,12.22.55,73.94,0,134.1-60.15,134.1-134.09,0-3.77-.17-7.62-.49-11.43l-.38-4.58h-24.7l.56,5.51a111.58,111.58,0,0,1,.58,11.26A109,109,0,0,1,92.58,479.55m0-38a70.87,70.87,0,0,1-11.7-1l-5.83-1v25.62l4.31.6a96.22,96.22,0,0,0,109.35-95.22,97.21,97.21,0,0,0-.8-12.41l-.56-4.36H161.78l.89,5.76a72.51,72.51,0,0,1,.85,11,71,71,0,0,1-70.94,70.94m0-38a32.45,32.45,0,0,1-10.87-1.85l-6.66-2.34v26.82l3.83.93a58.2,58.2,0,0,0,70.43-69.4l-.88-3.9H121.78l2.15,6.56a33,33,0,0,1-31.35,43.18m259.1-85.37H68.89a33.26,33.26,0,0,0-33.26,33.26V571.44L384.94,454.13V351.51a33.26,33.26,0,0,0-33.26-33.26ZM92.2,385.46a15.19,15.19,0,1,1,15.19-15.19A15.19,15.19,0,0,1,92.2,385.46Zm.38,99.09a113.9,113.9,0,0,0,113.91-113.9,117.4,117.4,0,0,0-.6-11.77h14.56q.47,5.44.47,11A129.09,129.09,0,0,1,91.82,499q-6,0-11.77-.53V483.87a112.76,112.76,0,0,0,12.53.68Zm0-38a76,76,0,0,0,75-87.71H183A91.14,91.14,0,0,1,92.58,461.77a92.41,92.41,0,0,1-12.53-.85V445.55a75,75,0,0,0,12.53,1Zm0-38a38,38,0,0,0,38-38,37.53,37.53,0,0,0-1.87-11.77h15.75a53.22,53.22,0,0,1-64.38,63.44V406.49a37.72,37.72,0,0,0,12.53,2.13Z" transform="translate(-29.55 -313.7)"/>
    </g>
  </g>
  <g id="Layer_1" data-name="Layer 1">
    <g>
      <path class="cls-4" d="M62.81,672.1a30.94,30.94,0,0,1-30.22-25C39.67,640.34,47,636.5,54.5,635.69a29,29,0,0,1,2.93-.15,39.84,39.84,0,0,1,8.79,1.2,46.48,46.48,0,0,0,10.36,1.36c1,0,1.94,0,2.92-.12C89,637.2,94,632.83,99.71,627.77A67.74,67.74,0,0,1,113.13,618c8.53-4.58,13.61-4.72,20.63-4.91a92.34,92.34,0,0,0,23.63-3.23c14.62-3.9,21.19-8.77,27.54-13.48,6-4.44,11.66-8.64,24.17-12.36a68.28,68.28,0,0,1,20.53-3.21c2.23,0,4.37.1,6.44.19s4.19.2,6.38.2c5.26,0,12-.49,22.2-4A64.75,64.75,0,0,0,287.37,564c5-4.11,9.63-8,20.45-11.21a67.12,67.12,0,0,1,19.93-2.92c2.38,0,4.63.1,6.8.2s4.05.17,6,.17h0A37.31,37.31,0,0,0,360.75,545c8.45-4.88,12-10.26,15.37-15.45l.25-.38V641.33A30.8,30.8,0,0,1,345.6,672.1Z" transform="translate(-29.55 -313.7)"/>
      <path class="cls-5" d="M373.87,537.09V641.33A28.3,28.3,0,0,1,345.6,669.6H62.81A28.45,28.45,0,0,1,35.33,648c6.36-5.79,12.88-9.08,19.44-9.79a24.08,24.08,0,0,1,2.66-.14,37.88,37.88,0,0,1,8.27,1.14,48.84,48.84,0,0,0,10.88,1.42c1,0,2.08,0,3.12-.13,10.36-.85,15.85-5.69,21.66-10.82a64.57,64.57,0,0,1,13-9.5c8-4.3,12.59-4.42,19.52-4.62A94.19,94.19,0,0,0,158,612.22c15.08-4,21.84-9,28.38-13.88,5.81-4.31,11.31-8.38,23.39-12a66.11,66.11,0,0,1,19.82-3.1c2.17,0,4.28.1,6.32.19s4.25.2,6.51.2c5.47,0,12.48-.5,23-4.19A67,67,0,0,0,289,566c5-4.12,9.23-7.67,19.56-10.74a64.41,64.41,0,0,1,19.22-2.82c2.33,0,4.55.1,6.69.19s4.1.18,6.14.18A40.07,40.07,0,0,0,362,547.17a41,41,0,0,0,11.87-10.08m5-15.63c-6.15,7.24-7.92,14.77-19.37,21.38a34.87,34.87,0,0,1-18.92,4.94c-4,0-8.14-.37-12.83-.37a69.76,69.76,0,0,0-20.65,3c-22.34,6.64-19.61,16-43.28,24.3a61,61,0,0,1-21.36,3.91c-4.33,0-8.31-.39-12.83-.39a70.94,70.94,0,0,0-21.24,3.31c-26.56,7.91-24,18.46-51.64,25.82-23.32,6.22-28.35-.46-44.81,8.35-15.14,8.11-18.09,18.56-32.65,19.75-1,.08-1.85.11-2.71.11-7.42,0-12.11-2.56-19.15-2.56a30.16,30.16,0,0,0-3.2.17c-6.63.71-15,3.74-24.32,13a33.27,33.27,0,0,0,32.9,28.37H345.6a33.28,33.28,0,0,0,33.27-33.27V521.46Z" transform="translate(-29.55 -313.7)"/>
    </g>
    <g>
      <path class="cls-6" d="M32.05,607.27,376.37,491.64v24.92a74.94,74.94,0,0,0-4.43,6.26c-3.23,4.93-6.28,9.58-13.69,13.86a32.2,32.2,0,0,1-17.67,4.61c-1.88,0-3.79-.08-5.81-.17-2.23-.1-4.53-.2-7-.2a71.83,71.83,0,0,0-21.36,3.13c-11.8,3.5-17.09,7.9-22.21,12.15A59.64,59.64,0,0,1,263,568.38c-9.47,3.32-15.7,3.77-20.53,3.77-2.09,0-4.07-.09-6.16-.19s-4.33-.2-6.67-.2a73.22,73.22,0,0,0-22,3.42c-13.35,4-19.64,8.64-25.72,13.14-6.25,4.63-12.15,9-25.85,12.66A86.74,86.74,0,0,1,133.62,604c-7.12.2-13.28.37-22.86,5.51A71.64,71.64,0,0,0,96.4,620c-5.48,4.83-9.43,8.33-17.31,9-.85.07-1.69.11-2.51.11a42.05,42.05,0,0,1-9.31-1.25,44.2,44.2,0,0,0-9.84-1.32,34.08,34.08,0,0,0-3.47.19c-7.53.81-14.88,4.22-21.91,10.15Z" transform="translate(-29.55 -313.7)"/>
      <path class="cls-7" d="M373.87,495.12v20.57c-1.53,2-2.8,3.89-4,5.76-3.2,4.88-6,9.09-12.85,13.07a30,30,0,0,1-16.42,4.27c-1.82,0-3.71-.08-5.7-.17-2.25-.1-4.59-.2-7.13-.2a74.51,74.51,0,0,0-22.07,3.23c-12.29,3.65-17.78,8.22-23.1,12.63A56.86,56.86,0,0,1,262.17,566c-9.12,3.19-15.09,3.62-19.71,3.62-2,0-4-.09-6.05-.18s-4.38-.21-6.78-.21A75.39,75.39,0,0,0,207,572.79c-13.77,4.1-20.24,8.89-26.5,13.53-6.05,4.48-11.76,8.72-25,12.25a84.5,84.5,0,0,1-21.91,3c-7.44.21-13.87.39-24,5.8a74.33,74.33,0,0,0-14.84,10.82c-5.3,4.68-8.8,7.77-15.86,8.35-.77.06-1.55.1-2.3.1a39.5,39.5,0,0,1-8.78-1.2A46.79,46.79,0,0,0,57.43,624a36.15,36.15,0,0,0-3.73.2,41,41,0,0,0-19.15,7.55V609.07l339.32-114m5-7L29.55,605.47v31.87a33.06,33.06,0,0,0,.36,4.9c9.32-9.28,17.69-12.31,24.32-13a27.82,27.82,0,0,1,3.2-.18c7,0,11.73,2.57,19.15,2.57.86,0,1.76,0,2.71-.12,14.56-1.19,17.51-11.63,32.65-19.74,16.46-8.82,21.49-2.13,44.81-8.35,27.59-7.36,25.08-17.92,51.64-25.82a71,71,0,0,1,21.24-3.32c4.52,0,8.5.39,12.83.39a60.92,60.92,0,0,0,21.36-3.91c23.67-8.29,20.94-17.65,43.28-24.3a69.7,69.7,0,0,1,20.65-3c4.69,0,8.81.37,12.83.37a35,35,0,0,0,18.92-4.94c11.45-6.61,13.22-14.15,19.37-21.38V488.16Z" transform="translate(-29.55 -313.7)"/>
    </g>
    <g>
      <polygon class="cls-8" points="2.5 258.79 346.81 143.16 346.81 168.87 2.5 284.5 2.5 258.79"/>
      <path class="cls-9" d="M373.87,460.33v20.44l-339.32,114V574.28L373.87,460.33m5-7L29.55,570.68v31L378.87,484.36v-31Z" transform="translate(-29.55 -313.7)"/>
    </g>
    <g>
      <path class="cls-10" d="M32.05,347A30.79,30.79,0,0,1,62.81,316.2H345.6A30.79,30.79,0,0,1,376.37,347V447.78L32.05,563.41ZM71.48,496.18l2.27.2c4,.36,8,.55,12,.55,72.56,0,131.59-59,131.59-131.6,0-3.7-.16-7.48-.47-11.22l-.19-2.29H197l.28,2.76a113.75,113.75,0,0,1,.59,11.51A111.53,111.53,0,0,1,86.51,477.5a112.78,112.78,0,0,1-12.26-.67l-2.77-.31Zm0-37.64,2.15.3a93.69,93.69,0,0,0,106.5-92.75,96,96,0,0,0-.77-12.09l-.28-2.18H158.62l.45,2.88a74.93,74.93,0,0,1,.87,11.39,73.47,73.47,0,0,1-85.55,72.44L71.48,438Zm0-38.81,1.91.46a55.68,55.68,0,0,0,68.77-54.1,56.86,56.86,0,0,0-1.36-12.32l-.44-1.95h-21.2l1.07,3.28a35.14,35.14,0,0,1,1.74,11,35.47,35.47,0,0,1-47.16,33.49l-3.33-1.18ZM86.13,348a17.69,17.69,0,1,0,17.68,17.69A17.71,17.71,0,0,0,86.13,348Z" transform="translate(-29.55 -313.7)"/>
      <path class="cls-11" d="M345.6,318.7A28.29,28.29,0,0,1,373.87,347v99L34.55,559.93V347A28.29,28.29,0,0,1,62.81,318.7H345.6M86.13,385.9a20.19,20.19,0,1,0-20.19-20.19A20.21,20.21,0,0,0,86.13,385.9m.38,89.1a110,110,0,0,1-12-.65L69,473.73v24.73l4.55.41c4.06.37,8.17.56,12.22.56,73.94,0,134.09-60.16,134.09-134.1,0-3.77-.16-7.61-.48-11.43l-.38-4.58h-24.7l.56,5.51a111.86,111.86,0,0,1,.57,11.26A109,109,0,0,1,86.51,475m0-38a71.08,71.08,0,0,1-11.71-1l-5.82-1v25.62l4.31.6a96.14,96.14,0,0,0,109.34-95.22,98.9,98.9,0,0,0-.79-12.4l-.56-4.37H155.71l.89,5.77a72.37,72.37,0,0,1,.84,11A71,71,0,0,1,86.51,437m0-38a32.7,32.7,0,0,1-10.87-1.84L69,394.87v26.82l3.82.93a58.2,58.2,0,0,0,70.43-69.39l-.87-3.91H115.71l2.15,6.56a33,33,0,0,1-31.35,43.18M345.6,313.7H62.81A33.26,33.26,0,0,0,29.55,347V566.89L378.87,449.58V347A33.27,33.27,0,0,0,345.6,313.7ZM86.13,380.9a15.19,15.19,0,1,1,15.18-15.19A15.18,15.18,0,0,1,86.13,380.9Zm.38,99.1a114,114,0,0,0,113.3-125.68h14.57c.3,3.63.46,7.3.46,11A129.1,129.1,0,0,1,85.75,494.43c-4,0-7.9-.19-11.77-.53V479.32a115.09,115.09,0,0,0,12.53.68Zm0-38a75.93,75.93,0,0,0,75.93-75.94,77.46,77.46,0,0,0-.9-11.77h15.34a93.33,93.33,0,0,1,.75,11.77A91.16,91.16,0,0,1,74,456.36V441a76,76,0,0,0,12.53,1Zm0-38a38,38,0,0,0,36.1-49.74h15.75A53.19,53.19,0,0,1,74,417.76V401.93a37.42,37.42,0,0,0,12.53,2.13Z" transform="translate(-29.55 -313.7)"/>
    </g>
  </g>
  <g id="Layer_4" data-name="Layer 4">
    <text class="cls-12" transform="translate(376.38 171.88) scale(1.14 1)">S<tspan class="cls-13" x="78.32" y="0">ink</tspan></text>
    <text class="cls-14" transform="translate(376.38 335.09) scale(1.14 1)">S<tspan class="cls-13" x="78.32" y="0">ecurity</tspan></text>
  </g>
</svg>
